Coordinates
version=1
nRows=6
nColumns=107
inDegrees=yes

Units are S.I. units (second, meters, Newtons, ...)
If the header above contains a line with 'inDegrees', this indicates whether rotational values are in degrees (yes) or radians (no).

endheader
time	sternoclavicular_r2	sternoclavicular_r3	unrotscap_r3	unrotscap_r2	acromioclavicular_r2	acromioclavicular_r3	acromioclavicular_r1	unrothum_r1	unrothum_r3	unrothum_r2	elv_angle	shoulder_elv	shoulder1_r2	shoulder_rot	elbow_flexion	pro_sup	deviation	flexion	proximal_distal_r1	proximal_distal_r3	cmc_flexion	cmc_abduction	mp_flexion	ip_flexion	mcp2_flexion	mcp2_abduction	pm2_flexion	md2_flexion	mcp3_flexion	mcp3_abduction	pm3_flexion	md3_flexion	mcp4_flexion	mcp4_abduction	pm4_flexion	md4_flexion	mcp5_flexion	mcp5_abduction	pm5_flexion	md5_flexion	bicpt_tx	bicpt_ty	bicpt_tz	bicpt2_tx	bicpt2_ty	bicpt2_tz	ptpt_tx	ptpt_ty	ptpt_tz	FCUpt_tx	FCUpt_ty	FCUpt_tz	EDCpt_tx	EDCpt_ty	EDCpt_tz	APLpt_tx	APLpt_ty	APLpt_tz	FPLpt_tx	FPLpt_ty	FPLpt_tz	FPLpt2_tx	FPLpt2_ty	FPLpt2_tz	PEC1pt2_tx	PEC1pt2_ty	PEC1pt2_tz	PEC1pt3_tx	PEC1pt3_ty	PEC1pt3_tz	PEC2pt2_tx	PEC2pt2_ty	PEC2pt2_tz	PEC2pt3_tx	PEC2pt3_ty	PEC2pt3_tz	PEC3pt2_tx	PEC3pt2_ty	PEC3pt2_tz	PEC3pt3_tx	PEC3pt3_ty	PEC3pt3_tz	DELT2pt2a_tx	DELT2pt2a_ty	DELT2pt2a_tz	DELT2pt2_tx	DELT2pt2_ty	DELT2pt2_tz	LAT1pt2_tx	LAT1pt2_ty	LAT1pt2_tz	LAT1pt3_tx	LAT1pt3_ty	LAT1pt3_tz	LAT2pt2_tx	LAT2pt2_ty	LAT2pt2_tz	LAT2pt3_tx	LAT2pt3_ty	LAT2pt3_tz	LAT3pt2_tx	LAT3pt2_ty	LAT3pt2_tz	LAT3pt3_tx	LAT3pt3_ty	LAT3pt3_tz
      0.40000000	     -0.33194810	      0.14059755	     -0.14059755	      0.33194810	     -0.06721274	      0.54318970	      0.24416003	     -0.24416003	     -0.54318970	      0.06721274	     97.53153777	     78.59166290	     -1.70224646	    -13.91030016	     27.85821715	     39.04585421	      0.21492343	     -1.01861721	      0.25387280	     -0.50930860	      1.56102957	    -11.68858881	    -26.91334377	    -30.99953777	     70.99229604	     12.28857644	     84.56753936	     77.62851660	     81.00883674	      4.21739528	     84.62581566	     55.68358053	     80.81915553	    -10.19096797	     93.15924892	     43.10460027	     89.89279626	    -13.33081963	     88.69585760	      5.57197798	      0.00082146	     -0.03079298	     -0.00481431	      0.01657158	     -0.01776782	     -0.00757125	      0.00466495	     -0.06676552	     -0.00319535	      0.00768432	     -0.18351478	     -0.00037930	     -0.00468549	      0.00134157	      0.00015302	      0.00017326	      0.00006931	      0.00034653	      0.00022178	      0.00066533	      0.00037425	      0.00003212	     -0.00003767	     -0.00004521	      0.00257606	      0.00903805	      0.00628734	     -0.00842678	      0.02034653	     -0.01929864	      0.00257606	      0.00903805	      0.00628734	      0.00056761	      0.01886202	     -0.00991129	      0.00403865	      0.00502594	      0.01618507	      0.00000000	      0.00826422	      0.00000000	     -0.00737889	     -0.03410008	     -0.00681681	      0.01001416	     -0.00025270	     -0.00149081	     -0.00091690	      0.01536905	     -0.00628734	      0.00253240	      0.02218033	     -0.01833807	     -0.00615635	      0.01331693	     -0.00563241	     -0.01283665	      0.02811837	     -0.03148035	     -0.02410146	      0.01488877	     -0.00755354	     -0.01598032	      0.03248458	     -0.03933953
      0.43333333	     -0.32873434	      0.13923635	     -0.13923635	      0.32873434	     -0.06656202	      0.53793080	      0.24179619	     -0.24179619	     -0.53793080	      0.06656202	     98.05127574	     77.83077649	     -1.71131760	    -17.48518080	     28.12157551	     41.75140306	      0.19889960	     -1.00633364	      0.23755433	     -0.50316682	      0.86877762	    -11.69014213	    -25.96356596	    -30.41062964	     71.92503263	     12.40271930	     85.04337218	     79.72570050	     81.36796735	      4.36039241	     85.59753099	     58.30831971	     81.54114351	    -10.31345440	     94.67784451	     44.27777285	     89.82168075	    -13.17394408	     88.86392017	      5.60606685	      0.00083017	     -0.03082316	     -0.00481917	      0.01657417	     -0.01783936	     -0.00728092	      0.00446504	     -0.06689478	     -0.00341330	      0.00795704	     -0.18345819	     -0.00039770	     -0.00501016	      0.00145196	      0.00013302	      0.00018155	      0.00007262	      0.00036309	      0.00023238	      0.00069713	      0.00039214	      0.00002124	     -0.00002130	     -0.00002556	      0.00255112	      0.00895055	      0.00622647	     -0.00834520	      0.02014954	     -0.01911180	      0.00255112	      0.00895055	      0.00622647	      0.00056211	      0.01867940	     -0.00981533	      0.00401042	      0.00497729	      0.01611833	      0.00000000	      0.00810378	      0.00000000	     -0.00730745	     -0.03376994	     -0.00668370	      0.01228277	     -0.00035599	     -0.00247611	     -0.00090803	      0.01522025	     -0.00622647	      0.00250788	      0.02196559	     -0.01816053	     -0.00609675	      0.01318800	     -0.00557788	     -0.01271237	      0.02784615	     -0.03117558	     -0.02386812	      0.01474462	     -0.00748041	     -0.01582560	      0.03217008	     -0.03895866
      0.46666667	     -0.33037186	      0.13992993	     -0.13992993	      0.33037186	     -0.06689358	      0.54061040	      0.24300065	     -0.24300065	     -0.54061040	      0.06689358	     97.72819969	     78.21847528	     -1.70567886	    -15.51372734	     27.92695514	     38.69377832	      0.18681392	     -1.04221771	      0.22496763	     -0.52110885	      0.79606658	    -11.04304514	    -26.33662460	    -27.85463665	     70.89023476	     12.38621832	     85.02068030	     79.40443362	     80.55413377	      4.19698403	     85.25059405	     60.92209663	     80.74928413	    -10.45130841	     94.64346534	     44.18530791	     89.09006950	    -13.18552892	     89.72340176	      5.56160228	      0.00082374	     -0.03080086	     -0.00481557	      0.01657004	     -0.01778649	     -0.00760829	      0.00469097	     -0.06674870	     -0.00316699	      0.00764899	     -0.18352200	     -0.00037651	     -0.00464324	      0.00132737	      0.00015534	      0.00015668	      0.00006267	      0.00031337	      0.00020056	      0.00060167	      0.00033844	      0.00001981	     -0.00001955	     -0.00002346	      0.00256383	      0.00899513	      0.00625748	     -0.00838677	      0.02024991	     -0.01920700	      0.00256383	      0.00899513	      0.00625748	      0.00056491	      0.01877245	     -0.00986423	      0.00402483	      0.00500208	      0.01615250	      0.00000000	      0.00818533	      0.00000000	     -0.00734385	     -0.03393816	     -0.00675136	      0.01105306	     -0.00029831	     -0.00190497	     -0.00091255	      0.01529607	     -0.00625748	      0.00252038	      0.02207501	     -0.01825099	     -0.00612712	      0.01325370	     -0.00560566	     -0.01277570	      0.02798486	     -0.03133087	     -0.02398702	      0.01481807	     -0.00751767	     -0.01590444	      0.03233033	     -0.03915273
      0.50000000	     -0.33036006	      0.13992493	     -0.13992493	      0.33036006	     -0.06689119	      0.54059109	      0.24299197	     -0.24299197	     -0.54059109	      0.06689119	     97.76956750	     78.21568072	     -1.70640086	    -15.51536812	     27.79738143	     38.21592413	      0.18248598	     -1.03905819	      0.22040214	     -0.51952910	      1.47008173	    -10.43064668	    -25.94742542	    -27.42785362	     69.08353700	     12.48518602	     84.71776592	     79.29680128	     78.92519102	      4.50013333	     84.46766292	     60.00527729	     79.50524515	    -10.40275812	     93.04543715	     43.43873790	     88.08412713	    -13.19010072	     89.27535563	      5.54491941	      0.00081945	     -0.03078600	     -0.00481318	      0.01656749	     -0.01775130	     -0.00765829	      0.00472627	     -0.06672587	     -0.00312850	      0.00760110	     -0.18353173	     -0.00037258	     -0.00458590	      0.00130815	      0.00015838	      0.00015895	      0.00006358	      0.00031791	      0.00020346	      0.00061039	      0.00034334	      0.00003104	     -0.00003556	     -0.00004267	      0.00256374	      0.00899481	      0.00625726	     -0.00838647	      0.02024919	     -0.01920631	      0.00256374	      0.00899481	      0.00625726	      0.00056489	      0.01877178	     -0.00986387	      0.00402472	      0.00500190	      0.01615226	      0.00000000	      0.00818474	      0.00000000	     -0.00734359	     -0.03393694	     -0.00675087	      0.01105401	     -0.00029836	     -0.00190554	     -0.00091252	      0.01529552	     -0.00625726	      0.00252029	      0.02207422	     -0.01825034	     -0.00612690	      0.01325322	     -0.00560546	     -0.01277524	      0.02798386	     -0.03132975	     -0.02398616	      0.01481754	     -0.00751740	     -0.01590387	      0.03232918	     -0.03915133
      0.53333333	     -0.33018289	      0.13984989	     -0.13984989	      0.33018289	     -0.06685532	      0.54030116	      0.24286166	     -0.24286166	     -0.54030116	      0.06685532	     97.80657593	     78.17373342	     -1.70704678	    -15.61455203	     27.70046958	     37.81558286	      0.17597887	     -1.03228836	      0.21348029	     -0.51614418	      2.54507224	    -10.24496390	    -25.00176749	    -26.61277830	     65.74894928	     12.52453973	     84.08728222	     78.88201269	     76.13455222	      4.82498396	     83.09210840	     58.06093981	     77.04638270	    -10.27892476	     90.82902448	     42.35154028	     86.12355759	    -13.23671285	     88.18460412	      5.52393274	      0.00081625	     -0.03077490	     -0.00481139	      0.01656487	     -0.01772497	     -0.00769988	      0.00475586	     -0.06670674	     -0.00309625	      0.00756105	     -0.18353983	     -0.00036912	     -0.00453786	      0.00129212	      0.00016081	      0.00016377	      0.00006551	      0.00032754	      0.00020963	      0.00062888	      0.00035375	      0.00004038	     -0.00006004	     -0.00007204	      0.00256236	      0.00898999	      0.00625390	     -0.00838197	      0.02023833	     -0.01919601	      0.00256236	      0.00898999	      0.00625390	      0.00056459	      0.01876171	     -0.00985858	      0.00402317	      0.00499922	      0.01614858	      0.00000000	      0.00817590	      0.00000000	     -0.00733965	     -0.03391874	     -0.00674353	      0.01111700	     -0.00030123	     -0.00193284	     -0.00091203	      0.01528732	     -0.00625390	      0.00251893	      0.02206238	     -0.01824055	     -0.00612361	      0.01324612	     -0.00560246	     -0.01276839	      0.02796885	     -0.03131295	     -0.02397330	      0.01480959	     -0.00751337	     -0.01589534	      0.03231184	     -0.03913033
      0.56666667	     -0.32955013	      0.13958188	     -0.13958188	      0.32955013	     -0.06672720	      0.53926574	      0.24239624	     -0.24239624	     -0.53926574	      0.06672720	     97.90565237	     78.02392275	     -1.70877599	    -16.19077668	     27.71912971	     38.13971086	      0.17894030	     -0.98370364	      0.21663901	     -0.49185182	      3.80370787	    -10.60952827	    -23.06077116	    -23.90087255	     60.72376725	     12.60477814	     83.36971272	     75.77313661	     71.43713876	      5.23500677	     82.60763121	     49.92979702	     72.82297451	    -10.01435189	     89.08828356	     39.38895072	     82.51357619	    -13.36280918	     86.95861869	      5.49799369	      0.00081686	     -0.03077704	     -0.00481174	      0.01656701	     -0.01773004	     -0.00766622	      0.00473191	     -0.06672223	     -0.00312236	      0.00759347	     -0.18353328	     -0.00037192	     -0.00457675	      0.00130510	      0.00015885	      0.00019609	      0.00007844	      0.00039218	      0.00025099	      0.00075298	      0.00042355	      0.00004234	     -0.00008707	     -0.00010448	      0.00255745	      0.00897276	      0.00624192	     -0.00836591	      0.02019954	     -0.01915922	      0.00255745	      0.00897276	      0.00624192	      0.00056351	      0.01872576	     -0.00983969	      0.00401760	      0.00498964	      0.01613540	      0.00000000	      0.00814436	      0.00000000	     -0.00732559	     -0.03385374	     -0.00671736	      0.01148109	     -0.00031793	     -0.00209381	     -0.00091028	      0.01525802	     -0.00624192	      0.00251411	      0.02202010	     -0.01820560	     -0.00611188	      0.01322073	     -0.00559172	     -0.01274392	      0.02791525	     -0.03125294	     -0.02392736	      0.01478121	     -0.00749897	     -0.01586488	      0.03224992	     -0.03905534
